<svg width="22" height="22" viewBox="0 0 22 22" fill="none" xmlns="http://www.w3.org/2000/svg">
<path d="M10.9549 2.0084C13.8762 2.0084 14.2414 2.0084 15.4282 2.0997C18.4408 2.19099 19.8102 3.65164 19.9015 6.57296C19.9928 7.75974 19.9928 8.03362 19.9928 10.9549C19.9928 13.8762 19.9928 14.2414 19.9015 15.3369C19.8102 18.2582 18.3495 19.7189 15.4282 19.8102C14.2414 19.9015 13.9675 19.9015 10.9549 19.9015C8.03362 19.9015 7.66845 19.9015 6.57296 19.8102C3.56035 19.7189 2.19099 18.2582 2.0997 15.3369C2.0084 14.1501 2.0084 13.8762 2.0084 10.9549C2.0084 8.03362 2.0084 7.66845 2.0997 6.57296C2.19099 3.65164 3.65164 2.19099 6.57296 2.0997C7.66845 2.0084 8.03362 2.0084 10.9549 2.0084ZM10.9549 0C7.94233 0 7.57716 0 6.48167 0.0912911C2.46486 0.273873 0.273873 2.46486 0.0912911 6.48167C0 7.57716 0 7.94233 0 10.9549C0 13.9675 0 14.3327 0.0912911 15.4282C0.273873 19.445 2.46486 21.636 6.48167 21.8186C7.57716 21.9099 7.94233 21.9099 10.9549 21.9099C13.9675 21.9099 14.3327 21.9099 15.4282 21.8186C19.445 21.636 21.636 19.445 21.8186 15.4282C21.9099 14.3327 21.9099 13.9675 21.9099 10.9549C21.9099 7.94233 21.9099 7.57716 21.8186 6.48167C21.636 2.46486 19.445 0.273873 15.4282 0.0912911C14.3327 0 13.9675 0 10.9549 0ZM10.9549 5.29488C7.85104 5.29488 5.29488 7.85104 5.29488 10.9549C5.29488 14.0588 7.85104 16.615 10.9549 16.615C14.0588 16.615 16.615 14.0588 16.615 10.9549C16.615 7.85104 14.0588 5.29488 10.9549 5.29488ZM10.9549 14.6066C8.94653 14.6066 7.30329 12.9633 7.30329 10.9549C7.30329 8.94653 8.94653 7.30329 10.9549 7.30329C12.9633 7.30329 14.6066 8.94653 14.6066 10.9549C14.6066 12.9633 12.9633 14.6066 10.9549 14.6066ZM16.7976 3.83423C16.0672 3.83423 15.5195 4.38197 15.5195 5.1123C15.5195 5.84263 16.0672 6.39038 16.7976 6.39038C17.5279 6.39038 18.0756 5.84263 18.0756 5.1123C18.0756 4.38197 17.5279 3.83423 16.7976 3.83423Z" fill="white"/>
</svg>
