<svg width="22" height="18" viewBox="0 0 22 18" fill="none" xmlns="http://www.w3.org/2000/svg">
<path d="M6.89046 17.8066C15.1587 17.8066 19.6803 10.9566 19.6803 5.01677C19.6803 4.82215 19.6763 4.62853 19.6674 4.43565C20.545 3.8012 21.3081 3.00926 21.9099 2.10818C21.1045 2.46602 20.2378 2.70699 19.3285 2.81564C20.2565 2.25919 20.9692 1.37854 21.3053 0.328936C20.4366 0.844019 19.4747 1.21831 18.4511 1.42016C17.6305 0.546482 16.4622 0 15.1697 0C12.687 0 10.6737 2.01324 10.6737 4.49471C10.6737 4.84757 10.7133 5.19046 10.7901 5.51964C7.05443 5.332 3.74164 3.54304 1.52482 0.823336C1.13832 1.48744 0.915787 2.25944 0.915787 3.08253C0.915787 4.64198 1.70947 6.01878 2.91631 6.82442C2.17895 6.80174 1.48619 6.5989 0.880402 6.26199C0.879405 6.28068 0.879405 6.29962 0.879405 6.3193C0.879405 8.49651 2.42914 10.3141 4.48574 10.726C4.10821 10.829 3.71099 10.8843 3.30082 10.8843C3.01126 10.8843 2.72967 10.8554 2.4558 10.8033C3.02795 12.589 4.68758 13.8888 6.65522 13.9254C5.11645 15.1313 3.17822 15.8497 1.07228 15.8497C0.709704 15.8497 0.351862 15.829 0 15.7874C1.98931 17.0623 4.35142 17.8066 6.89046 17.8066Z" fill="white"/>
</svg>
