<svg width="24" height="18" viewBox="0 0 24 18" fill="none" xmlns="http://www.w3.org/2000/svg">
<path fill-rule="evenodd" clip-rule="evenodd" d="M19.3543 2.209L19.3543 2.20904L19.3669 2.21002C20.1663 2.27151 20.59 2.42323 20.8235 2.56231C21.015 2.67642 21.1839 2.84198 21.345 3.20699C21.5271 3.61949 21.6826 4.2549 21.781 5.25143C21.8783 6.23726 21.9099 7.45744 21.9099 8.98802C21.9099 10.5183 21.8783 11.7455 21.7809 12.74C21.6823 13.7459 21.5262 14.3923 21.3424 14.8124C21.1789 15.1861 21.0111 15.3454 20.8335 15.4498C20.6151 15.5783 20.2062 15.7223 19.4177 15.7628L19.4177 15.7628L19.4092 15.7632C15.9049 15.9579 8.03711 15.9583 4.51455 15.7645C3.72821 15.702 3.30965 15.5516 3.07821 15.4137C2.88668 15.2996 2.71777 15.1341 2.55664 14.7691C2.37454 14.3566 2.21903 13.7212 2.12066 12.7246C2.02335 11.7388 1.99181 10.5186 1.99181 8.98802C1.99181 7.45744 2.02335 6.23726 2.12066 5.25143C2.21903 4.2549 2.37454 3.61949 2.55664 3.20699C2.71777 2.84198 2.88668 2.67642 3.07821 2.56231C3.31163 2.42323 3.73536 2.27151 4.53474 2.21002L4.53474 2.21006L4.54738 2.209C8.02255 1.91941 15.8791 1.91941 19.3543 2.209ZM0 8.98802C0 15.1626 0.497952 17.4532 4.38197 17.752C7.96722 17.9512 15.9344 17.9512 19.5197 17.752C23.4037 17.5528 23.9017 15.1626 23.9017 8.98802C23.9017 2.81343 23.4037 0.522849 19.5197 0.224078C15.9344 -0.0746927 7.96722 -0.0746927 4.38197 0.224078C0.497952 0.522849 0 2.81343 0 8.98802ZM10.404 12.2511C9.74183 12.5822 8.96273 12.1007 8.96273 11.3603V6.61591C8.96273 5.87557 9.74183 5.39406 10.404 5.72515L15.1484 8.09735C15.8825 8.46437 15.8825 9.51186 15.1484 9.87888L10.404 12.2511Z" fill="white"/>
</svg>
